{
  "accessors": [
    {
      "bufferView": 2,
      "componentType": 5126,
      "count": 65532,
      "max": [
        1.000007152557373,
        1.0000050067901611,
        0.080917604267597198
      ],
      "min": [
        -1.0000022649765015,
        -0.68359375,
        0.00041557158692739904
      ],
      "type": "VEC3"
    },
    {
      "bufferView": 2,
      "byteOffset": 786384,
      "componentType": 5126,
      "count": 65532,
      "max": [
        0.97731876373291016,
        0.87532627582550049,
        1
      ],
      "min": [
        -0.94590669870376587,
        -0.99909460544586182,
        0.042360298335552216
      ],
      "type": "VEC3"
    },
    {
      "bufferView": 1,
      "componentType": 5126,
      "count": 65532,
      "max": [
        0.99999821186065674,
        0.99999809265136719
      ],
      "min": [
        2.8826718789787265e-06,
        0.1582094132900238
      ],
      "type": "VEC2"
    },
    {
      "bufferView": 0,
      "componentType": 5125,
      "count": 330213,
      "max": [
        65531
      ],
      "min": [
        0
      ],
      "type": "SCALAR"
    },
    {
      "bufferView": 2,
      "byteOffset": 1572768,
      "componentType": 5126,
      "count": 65532,
      "max": [
        1.0000028610229492,
        1.0000028610229492,
        0.13733945786952972
      ],
      "min": [
        -1.0000022649765015,
        -0.89064520597457886,
        5.7647862377052661e-06
      ],
      "type": "VEC3"
    },
    {
      "bufferView": 2,
      "byteOffset": 2359152,
      "componentType": 5126,
      "count": 65532,
      "max": [
        0.97671270370483398,
        0.85601264238357544,
        1
      ],
      "min": [
        -0.92453873157501221,
        -0.8135114312171936,
        0.21455076336860657
      ],
      "type": "VEC3"
    },
    {
      "bufferView": 1,
      "byteOffset": 524256,
      "componentType": 5126,
      "count": 65532,
      "max": [
        0.99999606609344482,
        0.99999701976776123
      ],
      "min": [
        2.8826718789787265e-06,
        0.054684966802597046
      ],
      "type": "VEC2"
    },
    {
      "bufferView": 0,
      "byteOffset": 1320852,
      "componentType": 5125,
      "count": 340284,
      "max": [
        65531
      ],
      "min": [
        0
      ],
      "type": "SCALAR"
    },
    {
      "bufferView": 2,
      "byteOffset": 3145536,
      "componentType": 5126,
      "count": 65532,
      "max": [
        1.00001060962677,
        1.000005841255188,
        0.11237084865570068
      ],
      "min": [
        -0.65828341245651245,
        -0.8203125,
        0.00062793272081762552
      ],
      "type": "VEC3"
    },
    {
      "bufferView": 2,
      "byteOffset": 3931920,
      "componentType": 5126,
      "count": 65532,
      "max": [
        0.77781236171722412,
        0.809425950050354,
        1
      ],
      "min": [
        -0.93297696113586426,
        -0.99868500232696533,
        0.051180966198444366
      ],
      "type": "VEC3"
    },
    {
      "bufferView": 1,
      "byteOffset": 1048512,
      "componentType": 5126,
      "count": 65532,
      "max": [
        1,
        0.99999850988388062
      ],
      "min": [
        0.17086069285869598,
        0.089850783348083496
      ],
      "type": "VEC2"
    },
    {
      "bufferView": 0,
      "byteOffset": 2681988,
      "componentType": 5125,
      "count": 328746,
      "max": [
        65531
      ],
      "min": [
        0
      ],
      "type": "SCALAR"
    },
    {
      "bufferView": 2,
      "byteOffset": 4718304,
      "componentType": 5126,
      "count": 65532,
      "max": [
        0.99804955720901489,
        0.95847427845001221,
        0.14041662216186523
      ],
      "min": [
        -0.65524768829345703,
        -0.94595563411712646,
        0.0027511878870427608
      ],
      "type": "VEC3"
    },
    {
      "bufferView": 2,
      "byteOffset": 5504688,
      "componentType": 5126,
      "count": 65532,
      "max": [
        0.93102699518203735,
        0.90918427705764771,
        1
      ],
      "min": [
        -0.94828075170516968,
        -0.90779656171798706,
        -0.31339791417121887
      ],
      "type": "VEC3"
    },
    {
      "bufferView": 1,
      "byteOffset": 1572768,
      "componentType": 5126,
      "count": 65532,
      "max": [
        0.99901938438415527,
        0.97923296689987183
      ],
      "min": [
        0.17237855494022369,
        0.027030043303966522
      ],
      "type": "VEC2"
    },
    {
      "bufferView": 0,
      "byteOffset": 3996972,
      "componentType": 5125,
      "count": 321753,
      "max": [
        65531
      ],
      "min": [
        0
      ],
      "type": "SCALAR"
    },
    {
      "bufferView": 2,
      "byteOffset": 6291072,
      "componentType": 5126,
      "count": 65532,
      "max": [
        1.0000057220458984,
        0.41077858209609985,
        0.14844724535942078
      ],
      "min": [
        -1.000001072883606,
        -1.0000165700912476,
        6.2871855334378779e-05
      ],
      "type": "VEC3"
    },
    {
      "bufferView": 2,
      "byteOffset": 7077456,
      "componentType": 5126,
      "count": 65532,
      "max": [
        0.96937209367752075,
        0.86197090148925781,
        0.99999904632568359
      ],
      "min": [
        -0.93005144596099854,
        -0.9975922703742981,
        0.06894153356552124
      ],
      "type": "VEC3"
    },
    {
      "bufferView": 1,
      "byteOffset": 2097024,
      "componentType": 5126,
      "count": 65532,
      "max": [
        0.99999743700027466,
        0.70538854598999023
      ],
      "min": [
        3.4768102068483131e-06,
        0
      ],
      "type": "VEC2"
    },
    {
      "bufferView": 0,
      "byteOffset": 5283984,
      "componentType": 5125,
      "count": 325791,
      "max": [
        65531
      ],
      "min": [
        0
      ],
      "type": "SCALAR"
    },
    {
      "bufferView": 2,
      "byteOffset": 7863840,
      "componentType": 5126,
      "count": 65532,
      "max": [
        0.490234375,
        1.0000016689300537,
        0.1410895437002182
      ],
      "min": [
        -1.0000067949295044,
        -1.0000052452087402,
        0.0010830748360604048
      ],
      "type": "VEC3"
    },
    {
      "bufferView": 2,
      "byteOffset": 8650224,
      "componentType": 5126,
      "count": 65532,
      "max": [
        0.90952187776565552,
        0.8881375789642334,
        0.9999995231628418
      ],
      "min": [
        -0.94904226064682007,
        -0.99911892414093018,
        0.041841335594654083
      ],
      "type": "VEC3"
    },
    {
      "bufferView": 1,
      "byteOffset": 2621280,
      "componentType": 5126,
      "count": 65532,
      "max": [
        0.74511426687240601,
        0.99999630451202393
      ],
      "min": [
        6.3814871964495978e-07,
        5.6332946769543923e-06
      ],
      "type": "VEC2"
    },
    {
      "bufferView": 0,
      "byteOffset": 6587148,
      "componentType": 5125,
      "count": 316065,
      "max": [
        65531
      ],
      "min": [
        0
      ],
      "type": "SCALAR"
    },
    {
      "bufferView": 2,
      "byteOffset": 9436608,
      "componentType": 5126,
      "count": 65532,
      "max": [
        1.0000017881393433,
        1.0000088214874268,
        0.14149975776672363
      ],
      "min": [
        -0.95105850696563721,
        -0.99499338865280151,
        0.001124666421674192
      ],
      "type": "VEC3"
    },
    {
      "bufferView": 2,
      "byteOffset": 10222992,
      "componentType": 5126,
      "count": 65532,
      "max": [
        0.93821913003921509,
        0.89247810840606689,
        1
      ],
      "min": [
        -0.94828075170516968,
        -0.95695114135742188,
        0.27967444062232971
      ],
      "type": "VEC3"
    },
    {
      "bufferView": 1,
      "byteOffset": 3145536,
      "componentType": 5126,
      "count": 65532,
      "max": [
        0.99999552965164185,
        1
      ],
      "min": [
        0.024474544450640678,
        0.0025115031749010086
      ],
      "type": "VEC2"
    },
    {
      "bufferView": 0,
      "byteOffset": 7851408,
      "componentType": 5125,
      "count": 308004,
      "max": [
        65531
      ],
      "min": [
        0
      ],
      "type": "SCALAR"
    },
    {
      "bufferView": 2,
      "byteOffset": 11009376,
      "componentType": 5126,
      "count": 65532,
      "max": [
        1.0000004768371582,
        0.99805635213851929,
        0.13010844588279724
      ],
      "min": [
        -1.0000081062316895,
        -1.0000021457672119,
        0.0012798525858670473
      ],
      "type": "VEC3"
    },
    {
      "bufferView": 2,
      "byteOffset": 11795760,
      "componentType": 5126,
      "count": 65532,
      "max": [
        0.94899475574493408,
        0.83182114362716675,
        1
      ],
      "min": [
        -0.93540716171264648,
        -0.75941777229309082,
        0.29723018407821655
      ],
      "type": "VEC3"
    },
    {
      "bufferView": 1,
      "byteOffset": 3669792,
      "componentType": 5126,
      "count": 65532,
      "max": [
        0.99999481439590454,
        0.99902379512786865
      ],
      "min": [
        0,
        7.2176590037997812e-06
      ],
      "type": "VEC2"
    },
    {
      "bufferView": 0,
      "byteOffset": 9083424,
      "componentType": 5125,
      "count": 319080,
      "max": [
        65531
      ],
      "min": [
        0
      ],
      "type": "SCALAR"
    },
    {
      "bufferView": 2,
      "byteOffset": 12582144,
      "componentType": 5126,
      "count": 65532,
      "max": [
        1.0000096559524536,
        1.000002384185791,
        0.14165812730789185
      ],
      "min": [
        -1.0000051259994507,
        -1.0000101327896118,
        1.8248438209411688e-05
      ],
      "type": "VEC3"
    },
    {
      "bufferView": 2,
      "byteOffset": 13368528,
      "componentType": 5126,
      "count": 65532,
      "max": [
        0.97656482458114624,
        0.86870020627975464,
        1
      ],
      "min": [
        -0.94828075170516968,
        -0.99823659658432007,
        0.058840077370405197
      ],
      "type": "VEC3"
    },
    {
      "bufferView": 1,
      "byteOffset": 4194048,
      "componentType": 5126,
      "count": 65532,
      "max": [
        0.99999946355819702,
        0.99999678134918213
      ],
      "min": [
        1.4523384379572235e-06,
        3.2347434171242639e-06
      ],
      "type": "VEC2"
    },
    {
      "bufferView": 0,
      "byteOffset": 10359744,
      "componentType": 5125,
      "count": 298728,
      "max": [
        65531
      ],
      "min": [
        0
      ],
      "type": "SCALAR"
    },
    {
      "bufferView": 2,
      "byteOffset": 14154912,
      "componentType": 5126,
      "count": 65532,
      "max": [
        1.0000039339065552,
        1.0000046491622925,
        0.14706616103649139
      ],
      "min": [
        -1.0000036954879761,
        -1.0000097751617432,
        5.7647862377052661e-06
      ],
      "type": "VEC3"
    },
    {
      "bufferView": 2,
      "byteOffset": 14941296,
      "componentType": 5126,
      "count": 65532,
      "max": [
        0.9758874773979187,
        0.9044070839881897,
        1
      ],
      "min": [
        -0.92708873748779297,
        -0.99911892414093018,
        0.041932597756385803
      ],
      "type": "VEC3"
    },
    {
      "bufferView": 1,
      "byteOffset": 4718304,
      "componentType": 5126,
      "count": 65532,
      "max": [
        0.99999666213989258,
        0.99999785423278809
      ],
      "min": [
        2.1785076569358353e-06,
        3.3887788504216587e-06
      ],
      "type": "VEC2"
    },
    {
      "bufferView": 0,
      "byteOffset": 11554656,
      "componentType": 5125,
      "count": 188565,
      "max": [
        65531
      ],
      "min": [
        0
      ],
      "type": "SCALAR"
    },
    {
      "bufferView": 2,
      "byteOffset": 15727680,
      "componentType": 5126,
      "count": 59205,
      "max": [
        1.0000054836273193,
        1.0000033378601074,
        0.14704100787639618
      ],
      "min": [
        -1.0000027418136597,
        -1.0000017881393433,
        0.00011021841783076525
      ],
      "type": "VEC3"
    },
    {
      "bufferView": 2,
      "byteOffset": 16438140,
      "componentType": 5126,
      "count": 59205,
      "max": [
        0.97731876373291016,
        0.88299274444580078,
        1
      ],
      "min": [
        -0.94828075170516968,
        -0.99899619817733765,
        0.043702639639377594
      ],
      "type": "VEC3"
    },
    {
      "bufferView": 1,
      "byteOffset": 5242560,
      "componentType": 5126,
      "count": 59205,
      "max": [
        0.99999737739562988,
        0.99999731779098511
      ],
      "min": [
        2.6406153210700722e-06,
        7.3716942097235005e-06
      ],
      "type": "VEC2"
    },
    {
      "bufferView": 0,
      "byteOffset": 12308916,
      "componentType": 5125,
      "count": 68499,
      "max": [
        59204
      ],
      "min": [
        0
      ],
      "type": "SCALAR"
    }
  ],
  "asset": {
    "extras": {
      "author": "Šimon Ustal (https://sketchfab.com/simonustal)",
      "license": "CC-BY-4.0 (http://creativecommons.org/licenses/by/4.0/)",
      "source": "https://sketchfab.com/3d-models/mossygrassy-landscape-8f9a3ceee63747eea04c4b6ad2e5f5e2",
      "title": "Mossy/Grassy Landscape"
    },
    "generator": "Sketchfab-8.33.0",
    "version": "2.0"
  },
  "bufferViews": [
    {
      "buffer": 0,
      "byteLength": 12582912,
      "byteOffset": 0,
      "name": "floatBufferViews",
      "target": 34963
    },
    {
      "buffer": 0,
      "byteLength": 5716200,
      "byteOffset": 12582912,
      "byteStride": 8,
      "name": "floatBufferViews",
      "target": 34962
    },
    {
      "buffer": 0,
      "byteLength": 17148600,
      "byteOffset": 18299112,
      "byteStride": 12,
      "name": "floatBufferViews",
      "target": 34962
    }
  ],
  "buffers": [
    {
      "byteLength": 35447712,
      "uri": "scene.bin"
    }
  ],
  "images": [
    {
      "uri": "/Material.003_baseColor.png"
    },
    {
      "uri": "/Material.003_metallicRoughness.png"
    }
  ],
  "materials": [
    {
      "doubleSided": true,
      "emissiveFactor": [
        0,
        0,
        0
      ],
      "name": "Material.003",
      "occlusionTexture": {
        "index": 1,
        "strength": 0.73324581717633996,
        "texCoord": 0
      },
      "pbrMetallicRoughness": {
        "baseColorFactor": [
          1,
          1,
          1,
          1
        ],
        "baseColorTexture": {
          "index": 0,
          "texCoord": 0
        },
        "metallicFactor": 0.3644036066237018,
        "metallicRoughnessTexture": {
          "index": 1,
          "texCoord": 0
        },
        "roughnessFactor": 0.95770514946237739
      }
    }
  ],
  "meshes": [
    {
      "name": "Plane_Material.003_0",
      "primitives": [
        {
          "attributes": {
            "NORMAL": 1,
            "POSITION": 0,
            "TEXCOORD_0": 2
          },
          "indices": 3,
          "material": 0,
          "mode": 4
        }
      ]
    },
    {
      "name": "Plane_Material.003_0",
      "primitives": [
        {
          "attributes": {
            "NORMAL": 5,
            "POSITION": 4,
            "TEXCOORD_0": 6
          },
          "indices": 7,
          "material": 0,
          "mode": 4
        }
      ]
    },
    {
      "name": "Plane_Material.003_0",
      "primitives": [
        {
          "attributes": {
            "NORMAL": 9,
            "POSITION": 8,
            "TEXCOORD_0": 10
          },
          "indices": 11,
          "material": 0,
          "mode": 4
        }
      ]
    },
    {
      "name": "Plane_Material.003_0",
      "primitives": [
        {
          "attributes": {
            "NORMAL": 13,
            "POSITION": 12,
            "TEXCOORD_0": 14
          },
          "indices": 15,
          "material": 0,
          "mode": 4
        }
      ]
    },
    {
      "name": "Plane_Material.003_0",
      "primitives": [
        {
          "attributes": {
            "NORMAL": 17,
            "POSITION": 16,
            "TEXCOORD_0": 18
          },
          "indices": 19,
          "material": 0,
          "mode": 4
        }
      ]
    },
    {
      "name": "Plane_Material.003_0",
      "primitives": [
        {
          "attributes": {
            "NORMAL": 21,
            "POSITION": 20,
            "TEXCOORD_0": 22
          },
          "indices": 23,
          "material": 0,
          "mode": 4
        }
      ]
    },
    {
      "name": "Plane_Material.003_0",
      "primitives": [
        {
          "attributes": {
            "NORMAL": 25,
            "POSITION": 24,
            "TEXCOORD_0": 26
          },
          "indices": 27,
          "material": 0,
          "mode": 4
        }
      ]
    },
    {
      "name": "Plane_Material.003_0",
      "primitives": [
        {
          "attributes": {
            "NORMAL": 29,
            "POSITION": 28,
            "TEXCOORD_0": 30
          },
          "indices": 31,
          "material": 0,
          "mode": 4
        }
      ]
    },
    {
      "name": "Plane_Material.003_0",
      "primitives": [
        {
          "attributes": {
            "NORMAL": 33,
            "POSITION": 32,
            "TEXCOORD_0": 34
          },
          "indices": 35,
          "material": 0,
          "mode": 4
        }
      ]
    },
    {
      "name": "Plane_Material.003_0",
      "primitives": [
        {
          "attributes": {
            "NORMAL": 37,
            "POSITION": 36,
            "TEXCOORD_0": 38
          },
          "indices": 39,
          "material": 0,
          "mode": 4
        }
      ]
    },
    {
      "name": "Plane_Material.003_0",
      "primitives": [
        {
          "attributes": {
            "NORMAL": 41,
            "POSITION": 40,
            "TEXCOORD_0": 42
          },
          "indices": 43,
          "material": 0,
          "mode": 4
        }
      ]
    }
  ],
  "nodes": [
    {
      "children": [
        1
      ],
      "name": "RootNode (gltf orientation matrix)",
      "rotation": [
        -0.70710678118654746,
        -0,
        -0,
        0.70710678118654757
      ]
    },
    {
      "children": [
        2
      ],
      "name": "RootNode (model correction matrix)"
    },
    {
      "children": [
        3
      ],
      "matrix": [
        1,
        0,
        0,
        0,
        0,
        0,
        1,
        0,
        0,
        -1,
        0,
        0,
        0,
        0,
        0,
        1
      ],
      "name": "e12e6d49effe4b6bb7ef685afb61b197.fbx"
    },
    {
      "children": [
        4,
        16,
        19
      ],
      "name": "RootNode"
    },
    {
      "children": [
        5,
        6,
        7,
        8,
        9,
        10,
        11,
        12,
        13,
        14,
        15
      ],
      "matrix": [
        773.32318115230271,
        -0.00025198070669035864,
        -1.5546866795562891e-12,
        0,
        1.3762309145302381e-10,
        0.00042713350378956552,
        -773.32318115222574,
        0,
        0.00084068989990290636,
        2580.0585937494693,
        0.0014250568119381361,
        0,
        0,
        0,
        0,
        1
      ],
      "name": "Plane"
    },
    {
      "mesh": 0,
      "name": "Plane_Material.003_0"
    },
    {
      "mesh": 1,
      "name": "Plane_Material.003_0"
    },
    {
      "mesh": 2,
      "name": "Plane_Material.003_0"
    },
    {
      "mesh": 3,
      "name": "Plane_Material.003_0"
    },
    {
      "mesh": 4,
      "name": "Plane_Material.003_0"
    },
    {
      "mesh": 5,
      "name": "Plane_Material.003_0"
    },
    {
      "mesh": 6,
      "name": "Plane_Material.003_0"
    },
    {
      "mesh": 7,
      "name": "Plane_Material.003_0"
    },
    {
      "mesh": 8,
      "name": "Plane_Material.003_0"
    },
    {
      "mesh": 9,
      "name": "Plane_Material.003_0"
    },
    {
      "mesh": 10,
      "name": "Plane_Material.003_0"
    },
    {
      "children": [
        17
      ],
      "matrix": [
        -29.08647719990347,
        -5.5189064575668629,
        -95.517119101714371,
        0,
        56.639309131094492,
        79.467234285632031,
        -21.839123978419661,
        0,
        77.110087759933748,
        -60.452463565620441,
        -19.988346967737169,
        0,
        407.62454223632812,
        590.38623046875,
        -100.54539489746094,
        1
      ],
      "name": "Lamp"
    },
    {
      "children": [
        18
      ],
      "matrix": [
        1,
        0,
        0,
        0,
        0,
        2.2204460492503131e-16,
        1,
        0,
        0,
        -1,
        2.2204460492503131e-16,
        0,
        0,
        0,
        0,
        1
      ],
      "name": ""
    },
    {
      "name": ""
    },
    {
      "children": [
        20
      ],
      "matrix": [
        -65.155832803290963,
        -44.527135765708579,
        -61.417030473735487,
        0,
        -32.40134137821245,
        89.539574512336159,
        -30.542088974418615,
        0,
        68.592054721299746,
        -1.0718647115348782e-05,
        -72.767633623962695,
        0,
        748.1131591796875,
        534.36651611328125,
        650.76397705078125,
        1
      ],
      "name": "Camera"
    },
    {
      "name": ""
    }
  ],
  "samplers": [
    {
      "magFilter": 9729,
      "minFilter": 9987,
      "wrapS": 10497,
      "wrapT": 10497
    }
  ],
  "scene": 0,
  "scenes": [
    {
      "name": "OSG_Scene",
      "nodes": [
        0
      ]
    }
  ],
  "textures": [
    {
      "sampler": 0,
      "source": 0
    },
    {
      "sampler": 0,
      "source": 1
    }
  ]
}

