{
  "accessors": [
    {
      "bufferView": 2,
      "componentType": 5126,
      "count": 1223,
      "max": [
        4.384699821472168,
        -0.14550000429153442,
        -9.4280996322631836
      ],
      "min": [
        2.8450000286102295,
        -2.0998001098632812,
        -12.400300025939941
      ],
      "type": "VEC3"
    },
    {
      "bufferView": 2,
      "byteOffset": 14676,
      "componentType": 5126,
      "count": 1223,
      "max": [
        0.99999725818634033,
        0.99999499320983887,
        0.99999737739562988
      ],
      "min": [
        -0.99999725818634033,
        -0.99999654293060303,
        -0.99999785423278809
      ],
      "type": "VEC3"
    },
    {
      "bufferView": 1,
      "componentType": 5126,
      "count": 1223,
      "max": [
        1.8827999830245972,
        1.5195000171661377
      ],
      "min": [
        0.0026000000070780516,
        0.0038999998942017555
      ],
      "type": "VEC2"
    },
    {
      "bufferView": 0,
      "componentType": 5125,
      "count": 3267,
      "max": [
        1222
      ],
      "min": [
        0
      ],
      "type": "SCALAR"
    }
  ],
  "asset": {
    "extras": {
      "author": "BEAGAMER (https://sketchfab.com/BEAGAMER)",
      "license": "CC-BY-4.0 (http://creativecommons.org/licenses/by/4.0/)",
      "source": "https://sketchfab.com/3d-models/red-dot-sight-pubg-06536afb0fd149c0b49dbebfedb78e46",
      "title": "RED-DOT SIGHT | PUBG |"
    },
    "generator": "Sketchfab-9.55.1",
    "version": "2.0"
  },
  "bufferViews": [
    {
      "buffer": 0,
      "byteLength": 13068,
      "byteOffset": 0,
      "name": "floatBufferViews",
      "target": 34963
    },
    {
      "buffer": 0,
      "byteLength": 9784,
      "byteOffset": 13068,
      "byteStride": 8,
      "name": "floatBufferViews",
      "target": 34962
    },
    {
      "buffer": 0,
      "byteLength": 29352,
      "byteOffset": 22852,
      "byteStride": 12,
      "name": "floatBufferViews",
      "target": 34962
    }
  ],
  "buffers": [
    {
      "byteLength": 52204,
      "uri": "pointer.bin"
    }
  ],
  "images": [
    {
      "uri": "Scene_-_Root_baseColor.jpeg"
    }
  ],
  "materials": [
    {
      "doubleSided": true,
      "emissiveFactor": [
        0,
        0,
        0
      ],
      "name": "Scene_-_Root",
      "pbrMetallicRoughness": {
        "baseColorFactor": [
          1,
          1,
          1,
          1
        ],
        "baseColorTexture": {
          "index": 0,
          "texCoord": 0
        },
        "metallicFactor": 0.20200000000000001,
        "roughnessFactor": 0.29355836054210827
      }
    }
  ],
  "meshes": [
    {
      "name": "rd__0",
      "primitives": [
        {
          "attributes": {
            "NORMAL": 1,
            "POSITION": 0,
            "TEXCOORD_0": 2
          },
          "indices": 3,
          "material": 0,
          "mode": 4
        }
      ]
    }
  ],
  "nodes": [
    {
      "children": [
        1
      ],
      "name": "RootNode (gltf orientation matrix)",
      "rotation": [
        -0.70710678118654746,
        -0,
        -0,
        0.70710678118654757
      ]
    },
    {
      "children": [
        2
      ],
      "name": "RootNode (model correction matrix)"
    },
    {
      "children": [
        3
      ],
      "matrix": [
        1,
        0,
        0,
        0,
        0,
        0,
        1,
        0,
        0,
        -1,
        0,
        0,
        0,
        0,
        0,
        1
      ],
      "name": "RED-DOT.fbx"
    },
    {
      "children": [
        4
      ],
      "name": "RootNode"
    },
    {
      "children": [
        5
      ],
      "name": "RED-DOT"
    },
    {
      "children": [
        6
      ],
      "matrix": [
        -0.84797614342212613,
        1.0384712697952232e-16,
        -0.53003799381538774,
        0,
        5.7553870467029013e-17,
        1,
        1.0384692890722444e-16,
        0,
        0.53003799381538774,
        5.7553980242325144e-17,
        -0.84797614342212613,
        0,
        12.937191009521484,
        -10.143306732177734,
        -20.706026077270508,
        1
      ],
      "name": "rd"
    },
    {
      "mesh": 0,
      "name": "rd__0"
    }
  ],
  "samplers": [
    {
      "magFilter": 9729,
      "minFilter": 9987,
      "wrapS": 10497,
      "wrapT": 10497
    }
  ],
  "scene": 0,
  "scenes": [
    {
      "name": "OSG_Scene",
      "nodes": [
        0
      ]
    }
  ],
  "textures": [
    {
      "sampler": 0,
      "source": 0
    }
  ]
}

